<svg width="76" height="36" fill="none" xmlns="http://www.w3.org/2000/svg">
  <path
    fill-rule="evenodd"
    clip-rule="evenodd"
    d="M15.61 18.162a2.463 2.463 0 0 0 2.471 2.454c1.365 0 2.471-1.1 2.471-2.454a2.462 2.462 0 0 0-2.47-2.455 2.463 2.463 0 0 0-2.472 2.455zm2.666 14.615c.562.04 1.11.06 1.646.06 7.232 0 12.174-3.477 16.315-8.007v5.583c0 3.073-2.53 5.587-5.623 5.587H5.623C2.53 36 0 33.486 0 30.413v-14.76c4.633-5.8 9.492-10.11 17.756-9.534 6.622.462 10.196 5.266 10.196 9.552a8.31 8.31 0 0 1-2.475 5.934 8.424 8.424 0 0 1-5.975 2.458 8.428 8.428 0 0 1-5.977-2.458 1.468 1.468 0 0 0-2.066 0 1.445 1.445 0 0 0 0 2.054 11.341 11.341 0 0 0 8.043 3.31c3.037 0 5.893-1.176 8.042-3.31a11.183 11.183 0 0 0 3.332-7.988c0-5.6-4.527-11.865-12.916-12.448C9.823 2.655 4.45 6.303 0 11.17V5.586C0 2.514 2.53 0 5.623 0h24.99c3.093 0 5.624 2.514 5.624 5.586v14.762c-4.63 5.8-9.486 10.109-17.757 9.532-6.622-.46-10.196-5.265-10.196-9.551 0-2.24.88-4.35 2.475-5.935a8.43 8.43 0 0 1 5.976-2.458c2.257 0 4.38.874 5.976 2.46a1.47 1.47 0 0 0 2.068-.002c.57-.567.57-1.486 0-2.052a11.34 11.34 0 0 0-8.044-3.31 11.338 11.338 0 0 0-8.043 3.31 11.183 11.183 0 0 0-3.33 7.987c0 5.599 4.525 11.864 12.914 12.448zm26.24-21.659h-5.392V1.877h2.17v7.447h3.223v1.794zm5.609-4.004c-.014-.603-.459-1.326-1.362-1.326-.89 0-1.348.696-1.375 1.326h2.737zm1.982 1.22h-4.733c.095.95.823 1.378 1.7 1.378.862 0 1.617-.375 1.994-.63l.85 1.113c-.021.015-.048.037-.081.065-.315.262-1.21 1.005-3.074 1.005-2.049 0-3.546-1.258-3.546-3.44 0-2.184 1.618-3.43 3.587-3.43 1.968 0 3.33 1.3 3.33 3.228 0 .32-.027.71-.027.71zm4.024-.054 1.065-.068v1.085a1.324 1.324 0 0 1-1.105.603c-.592 0-1.011-.307-1.011-.817 0-.496.391-.777 1.051-.803zm1.146 2.839h2.063V7.396c0-1.112-.283-1.755-.796-2.238-.526-.481-1.24-.762-2.48-.762s-2.278.387-2.845.669l.567 1.393c.337-.214 1.186-.59 2.036-.59.862 0 1.361.362 1.361 1.059v.146l-1.672.068c-1.227.054-2.587.549-2.587 2.022 0 1.473 1.24 2.102 2.412 2.102 1.052 0 1.59-.535 1.88-.822l.02-.021.041.697zm10.035-6.604-2.736 6.603h-2.023l-2.722-6.603h2.25l1.51 4.179 1.497-4.179h2.225zm3.75 1.273c.903 0 1.349.723 1.361 1.326h-2.736c.027-.63.485-1.326 1.375-1.326zm-1.388 2.545h4.731s.027-.39.027-.71c0-1.929-1.361-3.227-3.33-3.227-1.968 0-3.586 1.245-3.586 3.428s1.497 3.441 3.546 3.441c1.865 0 2.76-.745 3.074-1.005l.08-.065-.85-1.112c-.376.254-1.131.629-1.994.629-.876 0-1.604-.428-1.698-1.379zM47.537 22.547h-2.238l-4.045-6.177v6.177h-2.13v-9.242h2.332l3.944 6.143.006-6.143h2.13v9.242zm3.452-3.321c0-.979.552-1.715 1.51-1.715.943 0 1.509.736 1.509 1.715 0 .976-.566 1.714-1.51 1.714-.957 0-1.51-.738-1.51-1.714zm-2.185.04c0 2.13 1.591 3.428 3.694 3.428 2.103 0 3.68-1.299 3.68-3.428 0-2.13-1.577-3.442-3.68-3.442s-3.694 1.313-3.694 3.442zm-2.697 7.182h-2.4v7.527h-2.183v-7.527h-2.4v-1.713h6.983v1.713zm4.484 2.894h.094l.121-1.97s-.228-.12-.674-.12c-.714 0-1.267.334-1.644 1.058h-.027l.013-.937h-2.157v6.602h2.157v-2.933c0-.737.175-1.166.337-1.38.162-.213.512-.481.998-.481.377 0 .661.094.782.16zm5.017 1.727-1.066.067c-.66.027-1.051.308-1.051.804 0 .509.419.816 1.012.816.579 0 .97-.374 1.105-.603V31.07zm2.143 2.906h-2.063l-.04-.696-.021.021c-.289.287-.828.823-1.88.823-1.173 0-2.413-.63-2.413-2.104 0-1.472 1.361-1.967 2.588-2.021l1.672-.067v-.148c0-.696-.5-1.058-1.362-1.058-.85 0-1.697.375-2.035.59l-.567-1.393a6.582 6.582 0 0 1 2.845-.67c1.24 0 1.955.282 2.48.763.513.483.796 1.126.796 2.237v3.723zm7.19-.626.02-.017-.512-1.62s-.675.643-1.685.643c-1.012 0-1.673-.656-1.673-1.701s.729-1.674 1.646-1.674c.93 0 1.522.441 1.712.588l.472-1.62s-.77-.696-2.468-.696c-1.82 0-3.532 1.232-3.532 3.442 0 2.196 1.684 3.429 3.505 3.429 1.66 0 2.379-.65 2.515-.774zm5.606-3.378c-.013-.602-.459-1.325-1.362-1.325-.89 0-1.348.696-1.374 1.325h2.736zm1.981 1.22h-4.731c.094.95.822 1.378 1.698 1.378.864 0 1.617-.375 1.995-.629l.85 1.112-.079.064c-.312.26-1.208 1.007-3.076 1.007-2.05 0-3.545-1.26-3.545-3.442 0-2.183 1.617-3.43 3.586-3.43 1.968 0 3.329 1.3 3.329 3.23 0 .32-.027.71-.027.71zm1.65-3.99h-1.28v.239h.5v1.334h.278V27.44h.502V27.2zm.18 0h.389l.437 1.232h.005l.425-1.232H76v1.573h-.264v-1.213h-.004l-.44 1.213h-.228l-.439-1.213h-.004v1.213h-.264v-1.573z"
    fill="#414141"
  />
</svg>
