<?xml version="1.0" encoding="UTF-8" standalone="no"?>
<!-- Created with Inkscape (http://www.inkscape.org/) -->

<svg
   version="1.1"
   id="svg2"
   xml:space="preserve"
   width="1133.8586"
   height="1133.8586"
   viewBox="0 0 1133.8587 1133.8587"
   sodipodi:docname="2a64c00390afd6faebe67b09c78d869b.eps"
   xmlns:inkscape="http://www.inkscape.org/namespaces/inkscape"
   xmlns:sodipodi="http://sodipodi.sourceforge.net/DTD/sodipodi-0.dtd"
   xmlns="http://www.w3.org/2000/svg"
   xmlns:svg="http://www.w3.org/2000/svg"><defs
     id="defs6" /><sodipodi:namedview
     id="namedview4"
     pagecolor="#ffffff"
     bordercolor="#666666"
     borderopacity="1.0"
     inkscape:pageshadow="2"
     inkscape:pageopacity="0.0"
     inkscape:pagecheckerboard="0" /><g
     id="g8"
     inkscape:groupmode="layer"
     inkscape:label="ink_ext_XXXXXX"
     transform="matrix(1.3333333,0,0,-1.3333333,0,1133.8586)"><g
       id="g10"
       transform="scale(0.1) rotate(180deg)"><path
         d="M 8503.94,0 H 0 V 8503.94 H 8503.94 V 0"
         style="fill:#ffffff;fill-opacity:1;fill-rule:nonzero;stroke:none"
         id="path12" /><path
         d="m 5858.57,4652.66 -2548.58,2270.5 c -326.86,291.19 -844.29,59.18 -844.29,-378.57 v 0 c 0,-144.63 61.76,-282.37 169.75,-378.58 L 4568.56,4443.83 c 114.7,-102.19 114.7,-281.53 0,-383.72 L 2635.45,2337.93 c -107.99,-96.2 -169.75,-233.95 -169.75,-378.57 v 0 c 0,-437.75 517.43,-669.77 844.29,-378.58 l 2548.58,2270.5 c 239.56,213.42 239.56,587.96 0,801.38"
         style="fill:#5b6166;fill-opacity:1;fill-rule:nonzero;stroke:none"
         id="path14" /></g></g></svg>
