<?xml version="1.0" encoding="UTF-8" standalone="no"?>
<!-- Created with Inkscape (http://www.inkscape.org/) -->

<svg
   version="1.1"
   id="svg2"
   xml:space="preserve"
   width="1600"
   height="1312"
   viewBox="0 0 1600 1312"
   sodipodi:docname="cf6673960ea7cdfb4274be60c5f31935.eps"
   xmlns:inkscape="http://www.inkscape.org/namespaces/inkscape"
   xmlns:sodipodi="http://sodipodi.sourceforge.net/DTD/sodipodi-0.dtd"
   xmlns="http://www.w3.org/2000/svg"
   xmlns:svg="http://www.w3.org/2000/svg"><defs
     id="defs6" /><sodipodi:namedview
     id="namedview4"
     pagecolor="#ffffff"
     bordercolor="#666666"
     borderopacity="1.0"
     inkscape:pageshadow="2"
     inkscape:pageopacity="0.0"
     inkscape:pagecheckerboard="0" /><g
     id="g8"
     inkscape:groupmode="layer"
     inkscape:label="ink_ext_XXXXXX"
     transform="matrix(1.3333333,0,0,-1.3333333,0,1312)"><g
       id="g10"
       transform="scale(0.1)"><path
         d="M 0,9840 H 12000 V 0 H 0 v 9840"
         style="fill:#ffffff;fill-opacity:1;fill-rule:evenodd;stroke:none"
         id="path12" /><path
         d="M 7444.01,6050.28 8385.1,4775.46 c -397.77,111.96 -816.83,63.44 -1242.83,-51.83 l 3.35,139.94 360.4,312.59 -506.2,273.18 84.51,362.64 -261.03,268.2 -1215.86,-1621.45 h -225.43 c 391.45,530.85 782.89,1061.71 1174.35,1592.5 380.86,516.55 503.23,520.39 887.65,-0.95"
         style="fill:#58b135;fill-opacity:1;fill-rule:evenodd;stroke:none"
         id="path14" /><path
         d="M 5513.39,5972.95 6571.14,4538.52 C 6269.23,4428.76 5967.07,4306.7 5669.66,4204.95 5495.55,4145.38 5317.49,4090.18 5136.87,4046.6 l 144,986.6 306.83,-107.82 -378.99,823.7 -439.21,-290.51 v 550.21 L 3411.78,4198.14 c -63.85,34.06 -126.73,71.63 -188.78,112.62 408.86,554.47 817.72,1108.93 1226.58,1663.33 456.44,619.05 603.1,623.65 1063.81,-1.14"
         style="fill:#80cc2c;fill-opacity:1;fill-rule:evenodd;stroke:none"
         id="path16" /><path
         d="M 9142.23,3996.74 C 7518.54,6000.69 5170.63,2410.64 2857.76,4316.8 4883.28,1935.98 7763.86,5071.51 9142.23,3996.74"
         style="fill:#80cc2c;fill-opacity:1;fill-rule:evenodd;stroke:none"
         id="path18" /></g></g></svg>
