<svg width="156" height="36" fill="none" xmlns="http://www.w3.org/2000/svg">
  <path
    d="M44.524 24.88c-2.25 0-3.808-1.904-3.808-6.88 0-5.02 1.515-6.88 3.808-6.88 2.25 0 3.808 1.904 3.808 6.88-.044 4.976-1.558 6.88-3.808 6.88zm0-12.548c-1.298 0-2.337 1.125-2.337 5.668s1.039 5.668 2.337 5.668c1.298 0 2.337-1.125 2.337-5.668 0-4.587-1.039-5.668-2.337-5.668zM52.313 11.293l3.461 9.866h.043v-9.866h1.428v13.414h-1.557l-4.154-11.683h-.044v11.683h-1.428V11.293h2.25zM65.51 11.293v1.212h-4.673v4.586h3.461v1.212h-3.461v5.149h4.89v1.211h-6.362V11.25h6.145v.043zM68.928 13.284h-2.25v-1.99h6.75v1.99h-2.25v11.423h-2.293V13.284h.043zM77.106 24.707h-2.293V11.293h3.245c2.596 0 3.894 1.082 3.894 3.938 0 2.163-.822 3.029-1.601 3.375l1.947 6.057h-2.337l-1.644-5.538c-.303.043-.778.043-1.168.043v5.539h-.043zm0-7.4h.822c1.255 0 1.73-.475 1.73-2.076s-.475-2.077-1.73-2.077h-.822v4.154zM83.856 24.707V11.293H90v1.99h-3.851v3.462h2.986v1.99h-2.986v3.938h4.11v1.99h-6.403v.044zM91.817 24.707V11.293h6.188v1.99h-3.851v3.462h2.986v1.99h-2.986v3.938h4.11v1.99h-6.447v.044zM99.779 11.293h3.158c2.164 0 3.549 1.428 3.549 3.678s-1.428 3.678-3.549 3.678h-1.73v6.058h-1.428V11.293zm1.428 6.101h1.514c1.428 0 2.293-.779 2.293-2.466 0-1.688-.865-2.467-2.293-2.467h-1.514v4.933zM109.428 11.293v12.202h4.327v1.212h-5.798V11.293h1.471zM119.596 11.293l2.943 13.414h-1.428l-.779-3.981h-3.418l-.779 3.98h-1.428l2.942-13.413h1.947zm-2.509 8.178h3.028l-1.471-7.226h-.086l-1.471 7.226zM126.043 11.293l3.462 9.866h.043v-9.866h1.471v13.414h-1.558l-4.153-11.683h-.044v11.683h-1.428V11.293h2.207zM139.197 11.293v1.212h-2.769v12.202H135V12.505h-2.769v-1.212h6.966zM146.639 11.293v1.212h-4.673v4.586h3.462v1.212h-3.462v5.149h4.89v1.211h-6.361V11.25h6.144v.043zM148.413 11.293h2.51c2.812 0 4.543 1.558 4.543 6.707s-1.731 6.707-4.543 6.707h-2.51V11.293zm1.471 12.159h.779c2.121 0 3.332-.909 3.332-5.495 0-4.587-1.211-5.496-3.332-5.496h-.779v10.99zM18 0C8.091 0 0 8.091 0 18s8.091 18 18 18 18-8.091 18-18S27.909 0 18 0zm8.351 31.37-.173-.086c0-.173-.13-.303-.26-.303s-.735-.217-.865-.217c-.087 0-.13.044-.216.087-.044-.043-.303-.216-.303-.303 0-.216-.13-.433-.346-.433-.174 0-.606-.173-.823-.173-.173 0-1.86-.865-2.033-.865a.238.238 0 0 0-.217.13.325.325 0 0 0-.302-.217c-.044 0-.13-.086-.13-.173 0-.216-.13-.432-.346-.432-.13 0-.433-.26-.606-.26 0 0-.606-.476-.78-.476-.086 0-.259-.087-.432-.216-.13-2.423-.39-4.284-.476-5.236-.043-.476-.086-.735-.086-.735-.087-.476-.13-1.039-.173-1.688-.217-3.85 0-10.558.13-13.457 0-.432.043-.822.043-1.038v-.346c-.303.432-.346 1.038-.346 1.211-.476 2.64-.693 5.28-.823 7.616-.043.865-.086 1.644-.086 2.423-.043 3.245.13 5.019.13 5.019.13 1.99.26 3.937.476 6.36a.329.329 0 0 0-.173.087c-.303.13-.606.303-.65.433-.043.086-.13.216-.216.216-.13 0-.476.52-.519.52-.173 0-.692.432-.736.648 0 .087-.303.303-.432.303-.173 0-.52.433-.736.433-.13 0-.649.13-.822.13-.13 0-.26.086-.303.216-.13-.086-.303-.173-.476-.173-.346 0-.735.303-.822.303-.043 0-.13 0-.173.043-.043-.043-.086-.043-.173-.043h-.087c-.173 0-.692.606-.822.606-.086 0-.26.086-.39.13H9.65C5.192 28.6 2.207 23.624 2.207 18 2.207 9.303 9.303 2.207 18 2.207S33.793 9.303 33.793 18c0 5.625-2.985 10.558-7.442 13.37z"
    fill="#414141"
  />
  <path
    d="M15.793 18.26c-.562-.909-1.514-1.774-3.115-2.294-.173-.043-.303-.086-.476-.13 0 0-2.336-.562-3.288-.475h.043c.13.043.39.26.952.519.952.476 2.38 1.298 3.678 2.336 1.298 1.039 2.553 1.645 2.942 2.986 0-.476-.13-1.601-.26-1.947-.13-.303-.26-.65-.476-.995zM20.163 10.125c.866-.563 1.818-.995 2.424-1.255.389-.13.649-.26.735-.26h.044c-.606-.13-2.207.087-2.207.087-.13 0-.217.043-.303.043-1.039.217-1.688.693-2.077 1.255-.433.563-.606 1.947-.65 2.25.304-.822 1.126-1.557 2.034-2.12zM18.909 21.245c.173-.216.303-.433.476-.649.173-.216.346-.433.562-.649l.303-.303.346-.303c.173-.13.346-.303.52-.432.043-.044.13-.087.173-.13.086-.044.173-.13.26-.173a3.74 3.74 0 0 1 .692-.433c.043-.043.086-.043.13-.086.086-.044.172-.087.216-.13.043 0 .043-.044.086-.044.173-.086.39-.173.563-.26a6.862 6.862 0 0 0-2.64.736c-.216.13-.432.26-.605.433-.78.563-1.212 1.168-1.472 1.73-.043.13-.13.304-.13.433-.043.13-.043.26-.086.347 0 .303.043.562.087.778.043-.086.043-.13.086-.216.173-.216.303-.432.433-.649z"
    fill="#414141"
  />
  <path
    d="M24.23 17.394c-.042 0-.129 0-.172.044-.043 0-.13.043-.216.043-.174.043-.303.13-.476.173-.217.086-.433.216-.65.303-.13.086-.216.13-.346.216-.13.087-.216.13-.346.217-.216.13-.433.346-.692.519-.216.216-.433.39-.65.606l-.302.302c-.087.13-.173.217-.303.346-.216.217-.346.433-.52.65a5.634 5.634 0 0 0-.432.649c-.13.216-.216.432-.346.605-.087.217-.173.39-.216.563 0 .043-.044.043-.044.086 0 .044-.043.087-.043.13.216-.043.779-.216 1.515-.606a8.048 8.048 0 0 0 1.903-1.384 8.555 8.555 0 0 0 1.774-2.596s.39-.736 1.125-.866h-.043c0-.043-.216-.043-.52 0zM15.664 8.524a3.801 3.801 0 0 0-.433-.26s-.779-.432-1.774-.475c.13.043.26.086.39.173l.043.043c.043.043.086.043.173.086.043 0 .043.044.086.044.173.086.303.173.476.303a.596.596 0 0 0 .173.13c.043.043.087.043.13.086.13.087.216.173.346.26l.216.216.217.216c.13.13.26.303.39.433.129.13.216.303.302.433.043.086.173.303.26.432l.086-.649a1.103 1.103 0 0 1-.086-.303 3.328 3.328 0 0 0-.995-1.168z"
    fill="#414141"
  />
  <path
    d="M16.572 11.12a1.298 1.298 0 0 0-.173-.346c-.086-.13-.13-.26-.216-.433-.087-.13-.173-.303-.303-.432-.13-.13-.216-.303-.346-.433-.044-.087-.13-.13-.173-.217l-.217-.216c-.13-.13-.303-.26-.432-.39-.173-.13-.303-.259-.476-.345a.76.76 0 0 1-.217-.174c-.086-.043-.13-.086-.216-.13a2.019 2.019 0 0 0-.433-.216c-.13-.043-.216-.086-.346-.13-.043 0-.086-.043-.13-.043-.043 0-.086 0-.13-.043-.216-.043-.346-.043-.389 0h-.043c.476.087.779.606.779.606a6.1 6.1 0 0 0 1.211 1.73c.433.433.866.736 1.255.953.476.26.865.389.995.389 0 0 0-.043-.043-.087.086 0 .043-.043.043-.043z"
    fill="#414141"
  />
</svg>
