<svg width="86" height="36" fill="none" xmlns="http://www.w3.org/2000/svg">
  <path
    fill-rule="evenodd"
    clip-rule="evenodd"
    d="M17.996 0C8.056 0 0 8.058 0 18s8.057 18 17.996 18c9.94 0 17.996-8.058 17.996-18S27.935 0 17.996 0zM45.3 9.4h-5.904v7.38h2.046v-2.636h3.489v-1.697h-3.489v-1.255h3.858V9.4zm.727 3.711v-.022c0-2.12 1.708-3.839 3.986-3.839 2.277 0 3.963 1.697 3.963 3.817v.022c0 2.12-1.708 3.839-3.985 3.839-2.278 0-3.963-1.698-3.963-3.817zm5.863 0v-.022c0-1.067-.77-1.995-1.897-1.995-1.119 0-1.866.906-1.866 1.973v.022c0 1.064.77 1.992 1.886 1.992 1.127.002 1.877-.903 1.877-1.97zM58.587 9.4h-3.488v7.38h2.044v-2.236h.897l1.485 2.236h2.361l-1.76-2.572c.919-.389 1.518-1.139 1.518-2.266v-.023c0-.727-.219-1.297-.652-1.719-.497-.506-1.278-.8-2.405-.8zm1 2.667c0 .538-.4.875-1.097.875h-1.35v-1.773h1.338c.686 0 1.108.295 1.108.875v.023zm6.915-.875h-2.214V9.4h6.474v1.792h-2.214v5.588h-2.046v-5.588zM73.756 9.4h-2.047v7.38h2.046v-2.805h2.625v2.806h2.044V9.4H76.38v2.761h-2.624V9.4zm6.029 0h5.934v1.739h-3.91v1.12h3.544v1.61h-3.544v1.173h3.963v1.739h-5.987V9.4zm-37.033 8.858h-3.405v7.945h2.202v-2.27h1.089c1.974 0 3.416-.989 3.416-2.86v-.023c0-1.758-1.295-2.792-3.303-2.792zm1.1 2.917c0 .625-.478 1.033-1.262 1.033h-1.044v-2.1h1.033c.794 0 1.272.364 1.272 1.045v.022zm3.132-2.917h2.202v6.017h3.846v1.928h-6.048v-7.945zm11.858-.055h-2.121l-3.38 8.003h2.316l.566-1.42h3.064l.577 1.42h2.36l-3.382-8.003zm-.192 4.866-.885-2.258-.897 2.258h1.782zm4.347-4.81h2.052l3.269 4.2v-4.2h2.18v7.944h-1.93l-3.394-4.359v4.359h-2.177v-7.945zm15.296 0h-6.39v7.944h6.449V24.33h-4.269v-1.259h3.813v-1.739h-3.813v-1.202h4.21v-1.873zm3.122 1.93h-2.383v-1.93H86v1.93h-2.383v6.014h-2.202v-6.014zM51.99 29.317v.47h2.65v-.47h-2.65zm5.636 1.258v-1.506l-.653.986h-.013l-.648-.974v1.497h-.5v-2.309h.55l.611.975.612-.975h.55v2.309h-.509v-.003zm1.063-2.308V30.58h1.769v-.453h-1.261v-.486h1.094v-.453h-1.094v-.47h1.244v-.452H58.69zm4.038 2.308v-1.506l-.653.986h-.014l-.647-.974v1.497h-.5v-2.309h.55l.611.975.611-.975h.55v2.309h-.508v-.003zm1.063 0h1.106c.522 0 .87-.211.87-.636v-.006c0-.308-.168-.464-.437-.566.167-.092.306-.236.306-.498v-.005c0-.364-.292-.597-.767-.597H63.79v2.308zm1-1.864c.217 0 .336.083.336.236v.009c0 .172-.144.244-.37.244h-.471v-.489h.505zm.089.911c.261 0 .378.095.378.25v.009c0 .169-.136.25-.361.25h-.609v-.509h.592zm1.305.953v-2.308h1.753v.452h-1.245v.47h1.095v.453h-1.095v.486h1.261v.453h-1.769v-.006zm3.136-.739.497.739h.594l-.566-.825c.294-.111.497-.345.497-.717v-.005c0-.475-.328-.761-.875-.761h-1.061v2.308h.51v-.739h.404zm.103-1.114c.25 0 .402.114.402.33h-.002v.006c0 .198-.142.328-.392.328h-.517v-.664h.508zm1.93 1.064v-.47H74v.47h-2.648zm12.827-4.283v.003c0 .38.303.694.694.694.39 0 .695-.32.695-.697V25.5a.691.691 0 0 0-.695-.695.697.697 0 0 0-.694.698zm1.27-.003v.003a.58.58 0 0 1-.578.586.573.573 0 0 1-.578-.58v-.003a.58.58 0 0 1 .578-.587c.33 0 .577.261.577.581zm-.531-.353h-.33v.69h.194v-.206h.083l.139.205h.225l-.164-.239c.086-.033.142-.108.142-.216 0-.162-.12-.234-.29-.234zm.094.245c0 .05-.039.083-.105.083v-.003h-.125v-.164h.125c.066 0 .105.03.105.084z"
    fill="#414141"
  />
  <path
    d="M14.602 32.008V10.261l-2.619-.025.023-3.522 3.39-3.02h6.23v28.314h-7.024zM30.501 13.13h1.467l-6.296 8.625h-1.466L30.5 13.13zM23.387 15.194c0 1.117.908 2.025 2.024 2.025a2.027 2.027 0 0 0 2.025-2.025 2.027 2.027 0 0 0-2.024-2.025 2.027 2.027 0 0 0-2.025 2.025zm1.13 0a.896.896 0 0 1 1.789 0 .896.896 0 0 1-1.789 0zM28.663 19.728c0 1.116.908 2.025 2.025 2.025a2.027 2.027 0 0 0 2.025-2.025 2.027 2.027 0 0 0-2.025-2.025 2.027 2.027 0 0 0-2.025 2.025zm1.13 0a.896.896 0 0 1 1.79 0 .896.896 0 0 1-1.79 0z"
    fill="#fff"
  />
</svg>
